<?xml version="1.0" standalone="no"?>
<!DOCTYPE svg PUBLIC "-//W3C//DTD SVG 20010904//EN"
 "http://www.w3.org/TR/2001/REC-SVG-20010904/DTD/svg10.dtd">
<svg version="1.0" xmlns="http://www.w3.org/2000/svg"
 width="269.000000pt" height="118.000000pt" viewBox="0 0 269.000000 118.000000"
 preserveAspectRatio="xMidYMid meet">

<g transform="translate(0.000000,118.000000) scale(0.100000,-0.100000)"
fill="#000000" stroke="none">
<path d="M1890 1085 c-209 -48 -345 -220 -342 -434 2 -124 46 -220 141 -309
126 -117 334 -147 475 -70 37 21 64 8 135 -63 l68 -69 62 62 c33 34 61 65 61
69 0 5 -25 34 -56 66 -90 94 -89 90 -57 159 25 53 28 70 28 165 0 101 -1 108
-37 181 -65 131 -188 226 -318 247 -78 13 -89 13 -160 -4z m200 -209 c54 -28
105 -91 121 -149 6 -23 9 -69 6 -101 -7 -75 -43 -129 -117 -173 -47 -28 -63
-33 -120 -33 -79 0 -132 22 -183 76 -66 70 -83 161 -47 257 51 136 204 191
340 123z"/>
<path d="M233 1075 c-29 -12 -33 -19 -34 -52 0 -21 -1 -202 -2 -403 l-2 -365
90 -5 c50 -3 94 -2 99 2 6 4 10 102 10 225 1 157 4 217 13 220 6 2 24 -10 40
-28 15 -18 44 -49 63 -68 20 -20 43 -47 53 -61 9 -13 41 -49 70 -80 29 -30 63
-68 76 -85 48 -64 104 -115 134 -123 34 -9 87 3 87 20 0 5 4 7 9 3 24 -14 28
112 22 723 l-1 83 -92 -3 -93 -3 -5 -225 c-4 -198 -7 -225 -21 -228 -9 -2 -27
10 -39 25 -12 15 -52 62 -89 103 -61 68 -169 194 -196 228 -5 8 -32 36 -59 63
-53 53 -76 59 -133 34z"/>
<path d="M1190 793 c-1 -159 -1 -344 -1 -412 0 -68 4 -127 8 -130 4 -4 46 -4
92 -1 l85 5 -2 403 c-1 222 -4 408 -8 413 -3 5 -43 9 -90 9 l-84 0 0 -287z"/>
</g>
</svg>
